<?xml version="1.0" encoding="utf-8"?>
<!-- Generator: Adobe Illustrator 26.3.1, SVG Export Plug-In . SVG Version: 6.00 Build 0)  -->
<svg version="1.1"
	 id="Layer_1" xmlns:cc="http://creativecommons.org/ns#" xmlns:rdf="http://www.w3.org/1999/02/22-rdf-syntax-ns#" xmlns:dc="http://purl.org/dc/elements/1.1/" xmlns:svg="http://www.w3.org/2000/svg"
	 xmlns="http://www.w3.org/2000/svg" xmlns:xlink="http://www.w3.org/1999/xlink" x="0px" y="0px" viewBox="0 0 954 218"
	 style="enable-background:new 0 0 954 218;" xml:space="preserve">
<style type="text/css">
	.st0{fill:url(#path10_00000109736658183359564890000005981908504507677836_);}
	.st1{fill:url(#path17_00000027562582550185951930000001773660933730628267_);}
	.st2{fill:url(#path24_00000127757021498678157920000000351154142140735642_);}
	.st3{fill:#EE7913;}
	.st4{fill:url(#polygon31_00000133507805043955087360000015811714844817372038_);}
	.st5{fill:#F0E64A;}
	.st6{fill:url(#path40_00000157294024256349398780000011846560275661248142_);}
	.st7{fill:#FFFFFF;fill-opacity:0.1725;}
	.st8{fill:#646464;}
	.st9{fill:url(#path1948_00000097478322112965133230000018051415582029040575_);}
	.st10{fill:url(#path1950_00000112619116332005135350000000041314029246416523_);}
	.st11{opacity:0.4438;fill:url(#path1894_00000158721793585995834800000000471545678690661275_);enable-background:new    ;}
</style>
<g id="g439" transform="translate(2.8558014e-7,2.2530625e-6)">
	
		<linearGradient id="path10_00000078742873553657353810000009252269609811458726_" gradientUnits="userSpaceOnUse" x1="793.5427" y1="46.3852" x2="791.3022" y2="193.6847" gradientTransform="matrix(1.0667 0 0 -1.0667 -130.3899 187.3606)">
		<stop  offset="0" style="stop-color:#589632"/>
		<stop  offset="1" style="stop-color:#93B023"/>
	</linearGradient>
	<path id="path10" style="fill:url(#path10_00000078742873553657353810000009252269609811458726_);" d="M773.4,105.2v48.1
		c-13.2,9.7-33.4,16.3-50.8,16.3c-37.9,0-66.7-27.5-66.7-63.8c0-36.1,29.3-63.5,68.3-63.5c18.6,0,37.5,7.2,50.2,18.2l-15.9,20.2
		c-9.3-8.6-22.2-13.9-34.3-13.9c-22.2,0-39.3,17-39.3,39c0,22.2,17.3,39.2,39.5,39.2c7.5,0,16.4-2.7,24.5-6.8v-32.9L773.4,105.2
		L773.4,105.2z"/>
	
		<linearGradient id="path17_00000126321330554211306370000009382120984160502966_" gradientUnits="userSpaceOnUse" x1="884.1132" y1="47.7622" x2="881.8728" y2="195.0624" gradientTransform="matrix(1.0667 0 0 -1.0667 -130.3899 187.3606)">
		<stop  offset="0" style="stop-color:#589632"/>
		<stop  offset="1" style="stop-color:#93B023"/>
	</linearGradient>
	<path id="path17" style="fill:url(#path17_00000126321330554211306370000009382120984160502966_);" d="M798.1,169.6V44.4h28.2
		v125.1H798.1z"/>
	
		<linearGradient id="path24_00000108301555188630231680000006409074510411671223_" gradientUnits="userSpaceOnUse" x1="962.3426" y1="48.953" x2="960.1022" y2="196.2523" gradientTransform="matrix(1.0667 0 0 -1.0667 -130.3899 187.3606)">
		<stop  offset="0" style="stop-color:#589632"/>
		<stop  offset="1" style="stop-color:#93B023"/>
	</linearGradient>
	<path id="path24" style="fill:url(#path24_00000108301555188630231680000006409074510411671223_);" d="M947.4,55.9l-10.9,23.4
		c-13.2-7.9-29-12.9-39-12.9c-9.5,0-15.9,3.4-15.9,10.2c0,23.1,66.7,10.2,66.5,55.2c0,24.5-21.3,37.7-49,37.7
		c-20.6,0-41.1-7.9-55.2-19.8l11.3-23.1c12.9,11.4,31.1,18.8,44.3,18.8c11.6,0,18.6-4.3,18.6-12c0-23.6-66.7-9.8-66.7-54.2
		c0-22.7,19.5-37,48.5-37C917.3,42.3,934.9,47.7,947.4,55.9L947.4,55.9z"/>
	<g id="g212" transform="translate(454.69912,22.772572)">
		<polygon id="polygon3" class="st3" points="109,98.1 109,74.3 131.9,74.3 112.5,55.1 88.7,55.1 88.7,77.9 		"/>
		
			<linearGradient id="polygon31_00000000940415848961682520000012705832291844135589_" gradientUnits="userSpaceOnUse" x1="235.0184" y1="21.5397" x2="232.7592" y2="170.0762" gradientTransform="matrix(1.0667 0 0 -1.0667 -100.0766 140.2973)">
			<stop  offset="0" style="stop-color:#589632"/>
			<stop  offset="1" style="stop-color:#93B023"/>
		</linearGradient>
		<polygon id="polygon31" style="fill:url(#polygon31_00000000940415848961682520000012705832291844135589_);" points="182.6,146.8 
			182.6,124.4 141.6,83.9 118.6,83.9 118.6,107.7 157.8,146.8 		"/>
		<polygon id="polygon33" class="st5" points="118.6,107.7 118.6,83.9 141.6,83.9 131.9,74.3 109,74.3 109,98.1 		"/>
		
			<linearGradient id="path40_00000152232271907400213140000002298133470015567245_" gradientUnits="userSpaceOnUse" x1="189.3004" y1="21.3385" x2="187.06" y2="168.6377" gradientTransform="matrix(1.0667 0 0 -1.0667 -100.0766 140.2973)">
			<stop  offset="0" style="stop-color:#589632"/>
			<stop  offset="1" style="stop-color:#93B023"/>
		</linearGradient>
		<path id="path40" style="fill:url(#path40_00000152232271907400213140000002298133470015567245_);" d="M112.2,113.6
			c-3.5,0.8-7.1,1.2-10.8,1.2c-26.7,0-49.4-21.9-49.4-50.4s22.4-49.9,49.4-49.9s48.4,21.4,48.4,49.9c0,4.6-0.6,9.1-1.6,13.3
			l24.7,24.7c6.4-11.2,9.9-24.1,9.9-38.2c0-43.8-35-76.6-81.8-76.6c-46.6,0-81.6,32.6-81.6,76.6c0,44.3,35,77.5,81.6,77.5
			c12,0,23.3-2.2,33.4-6.2L112.2,113.6z"/>
		<path id="polygon4174" class="st7" d="M88.7,55.1l93.9,91.7v-22.5l-40.9-40.5l-9.7-9.6l-19.4-19.2L88.7,55.1z"/>
	</g>
	<g id="g399" transform="matrix(1.5971484,0,0,1.5971484,23.872994,276.11684)">
		<path id="path46" class="st8" d="M194.3-105.9c0-16.6-4.7-25.1-14.2-25.5c-3.8-0.2-7.4,0.4-11,1.8c-2.8,1-4.8,2-5.8,3V-87
			c6,3.8,11.4,5.6,16.1,5.3C189.4-82.4,194.3-90.4,194.3-105.9L194.3-105.9z M206-105.2c0,8.4-2,15.4-5.9,21
			c-4.4,6.3-10.6,9.5-18.4,9.7c-5.9,0.2-12-1.7-18.3-5.5v35.9l-10.1-3.6v-79.8c1.7-2,3.8-3.8,6.4-5.3c6-3.5,13.4-5.3,22-5.4l0.1,0.1
			c7.9-0.1,14,3.1,18.2,9.7C204-122.4,206-114.6,206-105.2L206-105.2z"/>
		<path id="path48" class="st8" d="M267.9-81.6c0,11.3-1.1,19.1-3.4,23.4c-2.3,4.3-6.6,7.8-13,10.4c-5.2,2-10.8,3.1-16.8,3.3
			l-1.7-6.4c6.1-0.8,10.4-1.7,12.9-2.5c4.9-1.7,8.3-4.2,10.1-7.6c1.5-2.8,2.2-8.1,2.2-16v-2.6c-6.9,3.1-14.2,4.7-21.8,4.7
			c-5,0-9.4-1.6-13.2-4.7c-4.3-3.4-6.4-7.8-6.4-13v-42.2l10.1-3.5v42.5c0,4.5,1.5,8,4.4,10.5c2.9,2.5,6.7,3.6,11.4,3.5
			c4.6-0.1,9.6-1.9,14.9-5.4v-49.5h10.1L267.9-81.6z"/>
		
			<linearGradient id="path1948_00000096772061229402645880000016986409011978139821_" gradientUnits="userSpaceOnUse" x1="-480.2595" y1="-593.1678" x2="-371.2432" y2="-686.9617" gradientTransform="matrix(0.5625 0 0 -0.568 232.8188 -523.9766)">
			<stop  offset="0" style="stop-color:#5A9FD4"/>
			<stop  offset="1" style="stop-color:#306998"/>
		</linearGradient>
		<path id="path1948" style="fill:url(#path1948_00000096772061229402645880000016986409011978139821_);" d="M53.2-169.1
			c-5.2,0-10.2,0.5-14.6,1.2c-12.9,2.3-15.2,7.1-15.2,15.9v11.6h30.5v3.9H23.3H11.9c-8.9,0-16.6,5.3-19.1,15.5
			c-2.8,11.6-2.9,18.9,0,31C-5-81,0.2-74.5,9-74.5h10.5v-13.9c0-10.1,8.7-18.9,19.1-18.9H69c8.5,0,15.2-7,15.2-15.5v-29
			c0-8.3-7-14.5-15.2-15.9C63.8-168.7,58.4-169.1,53.2-169.1z M36.7-159.7c3.2,0,5.7,2.6,5.7,5.8c0,3.2-2.6,5.8-5.7,5.8
			c-3.2,0-5.7-2.6-5.7-5.8C30.9-157.1,33.5-159.7,36.7-159.7z"/>
		
			<linearGradient id="path1950_00000054255847931024048300000011801205512226332313_" gradientUnits="userSpaceOnUse" x1="-440.0539" y1="-553.4683" x2="-478.9836" y2="-498.3896" gradientTransform="matrix(0.5625 0 0 -0.568 232.8188 -523.9766)">
			<stop  offset="0" style="stop-color:#FFD43B"/>
			<stop  offset="1" style="stop-color:#FFE873"/>
		</linearGradient>
		<path id="path1950" style="fill:url(#path1950_00000054255847931024048300000011801205512226332313_);" d="M88.1-136.5v13.5
			c0,10.5-8.9,19.3-19.1,19.3H38.6c-8.3,0-15.2,7.1-15.2,15.5v29c0,8.3,7.2,13.1,15.2,15.5c9.7,2.8,18.9,3.4,30.5,0
			c7.7-2.2,15.2-6.7,15.2-15.5v-11.6H53.8v-3.9h30.5h15.2c8.9,0,12.2-6.2,15.2-15.5c3.2-9.6,3-18.7,0-31
			c-2.2-8.8-6.4-15.5-15.2-15.5H88.1z M71-62.9c3.2,0,5.7,2.6,5.7,5.8c0,3.2-2.6,5.8-5.7,5.8c-3.2,0-5.7-2.6-5.7-5.8
			C65.2-60.3,67.8-62.9,71-62.9L71-62.9z"/>
		
			<radialGradient id="path1894_00000148619637852302885140000003462055787149987747_" cx="-591.1234" cy="202.0133" r="29.0369" gradientTransform="matrix(1.749057e-08 -0.2399 -1.0547 -3.791546e-07 425.3381 -500.8876)" gradientUnits="userSpaceOnUse">
			<stop  offset="0" style="stop-color:#B8B8B8;stop-opacity:0.498"/>
			<stop  offset="1" style="stop-color:#7F7F7F;stop-opacity:0"/>
		</radialGradient>
		
			<ellipse id="path1894" style="opacity:0.4438;fill:url(#path1894_00000148619637852302885140000003462055787149987747_);enable-background:new    ;" cx="54.2" cy="-23.8" rx="40.9" ry="7.9"/>
	</g>
</g>
</svg>
