<?xml version="1.0" encoding="UTF-8"?><svg id="Calque_2" xmlns="http://www.w3.org/2000/svg" viewBox="0 0 752.32 260.86"><defs><style>.cls-1{fill:#fff;}.cls-2{fill:#007478;}</style></defs><path class="cls-2" d="M361.01,161.55l-6.21-2.3c-2.48,1.59-4.07,4.16-5.67,6.73-1.91,3.05-3.76,6.03-7.72,7.02-4.23,1.06-6.26-.4-6.4-4.85-.1-3.43-.47-6.86-.82-10.28-.08-.73-.59-1.41-1.11-2.57-6.53,2.23-12.96,4.27-19.28,6.64-6.71,2.52-13.27,5.44-19.96,8.01-27.19,10.47-54.39,20.89-81.6,31.29-24.35,9.31-48.73,18.54-73.07,27.88-11.3,4.33-22.51,8.92-33.83,13.2-5.58,2.11-11.27,3.99-17.02,5.58-6.03,1.66-11.85,1.12-16.96-3.05-7.73-6.3-15.66-12.36-23.21-18.87-8.66-7.47-17.02-15.3-25.47-23-1.27-1.15-2.37-2.49-3.74-3.94,1.45-7.32-.08-13.91-5.64-18.68,.34-.97,.36-1.33,.53-1.45,4-2.54,4.56-6.18,3.53-10.45-.49-2.05-.72-4.16-1.22-7.14,11.15,8.86,21.12,18.1,31.64,26.66,10.59,8.61,20.39,18.18,31.16,26.24,2.75-1.04,3.02-2.56,1.67-4.23-1.07-1.33-2.52-2.35-3.77-3.54-2.47-2.34-4.92-4.69-7.38-7.04l.61-.79c.69,.4,1.44,.73,2.07,1.22,3.34,2.64,6.6,5.38,10,7.94,1.08,.82,2.49,1.22,3.7,1.79,1.98-3.54,1.83-4.95-1.09-7.59-4.44-4.01-8.99-7.91-13.54-11.8-14.16-12.1-28.33-24.2-42.54-36.24-6.09-5.16-12.31-10.17-18.45-15.27-1.07-.89-2.05-1.9-3.11-2.9,2.71-2.3,178.86-60.8,184.19-61.37,1.87,1.3,3.75,2.59,5.62,3.89,.36-.42,.73-.84,1.09-1.25-1.64-.87-3.27-1.74-4.91-2.6l.68-1.16c1.2-.47,2.38-1.01,3.6-1.41,17.71-5.8,35.43-11.55,53.13-17.39,2.39-.79,4.67-1.91,6.98-2.94,7.04-3.14,14.19-6.06,21.06-9.54,6.34-3.21,13.5-5.33,17.92-11.5,1.37-1.91,2.4-4.07,3.43-6.2,.56-1.16,.79-2.49,1.31-4.21,1.56,.45,2.94,.75,4.24,1.25,4.8,1.84,9.68,2.13,14.43,.18,5.02-2.05,9.95-4.37,14.78-6.85,6.13-3.15,12.55-5.12,19.42-4.85,3.11,.12,4.88-1.58,6.87-3.41,1.32,.56,2.52,1.07,3.82,1.62,3.84-.65,6.29-3.01,7.95-7.28,1.2,1.18,2.25,1.9,2.88,2.89,3.71,5.82,8.75,8.59,15.8,7.77,2.59-.3,5.27,.29,7.91,.42,1.45,.07,2.91,.15,4.35,0,2.22-.22,4.24,0,5.77,1.43l2.18,4.9,.93-.25v-4.75c2.16,.99,3.73,1.7,5.17,2.35,.47,1.63,.84,2.89,1.22,4.19,1.67,1.61,3.45,1.75,5.51,.49,.31-1.24,.62-2.5,.94-3.82,3.36-2.04,6.93-1.94,10.46-1.08,5.5,1.34,8.96-.04,12.66-4.09,3.72-4.07,8.04-7.58,11.96-11.21,3.15,1.88,3.15,2.4,1.74,5.19-1.73,3.42-3.36,6.91-4.69,10.49-.72,1.94-.75,4.15-1.02,6.25-.85,6.73,2.72,11.01,8.12,14.63,3.71-2.87,7.87-2.54,12.45-2.08,.8,3.05,1.56,5.95,2.23,8.54,6.31,5.21,12.75,3.35,19.32,.94,2.89,4.28-.19,9.65,3.38,13.43,2.33,.49,3.41-.93,3.53-3,.28-4.77,2.04-8.49,5.78-11.72,1.64-1.41,1.95-4.49,2.61-6.88,.7-2.55,.99-5.21,1.66-7.77,.27-1.04,1.08-1.93,2.09-3.65,1.42,4.16,1.79,7.52,1.72,10.92-.1,4.83,1.12,9.39,2.76,13.83,.84,2.28,1.87,4.43,.81,6.84-6.71,5.47-8.73,15.94-3.85,20.56,2.87-1.32,2.75-4.59,4.25-6.85,2,4.16-8.49,45.25-11.95,52.48-5.75,.93-11.7,.61-17.64,.05-14.67-1.39-28.76-5.09-42.6-10.12-7.6-2.76-15.58-4.49-23.39-6.67-1.54-.43-3.12-.73-4.61-1.28-17.61-6.49-35.11-4.87-52.39,1.09-9.36,3.22-15.87,10.09-20.36,18.78-2.36,4.58-2.86,9.4-.19,14.15,.19,.35,.41,.71,.48,1.1,1.12,6.4,4.39,11.54,9.1,15.92,1.57,1.46,1.79,3.44,1.25,6.38Zm-204.21-10.97c5.03,5.46,11.2,9.46,17.29,13.58-1.64-2.07-3.51-3.87-5.6-5.39-3.85-2.8-7.82-5.44-11.74-8.15-1.36-1.43-2.56-3.06-4.1-4.26-6.47-5.05-13.02-9.99-19.58-14.93-.63-.47-1.47-.67-2.22-.99,.14,.96,.5,1.51,1,1.9,5.34,4.14,10.65,8.31,16.07,12.33,2.85,2.11,5.9,3.95,8.86,5.91Zm39.65-56.2c2.31-.66,4.63-1.32,6.94-1.97l.16-1.09c-1.72-1.25-3.43-2.49-4.84-3.52-5.07,.81-5.31,.96-6.68,3.8l-11.43-7.82c.85,4.36,4.27,5.1,6.5,6.92,2.46,2.02,5.3,3.55,7.92,5.38,5.66,3.95,5.64,3.97,7.9,3.78-2.29-1.94-4.38-3.71-6.47-5.48Zm43.48,30.68c-4.69-3.23-9.37-6.46-14.14-9.75-.58,2.05,1.1,2.99,2.38,3.95,5.82,4.38,11.69,8.68,17.58,12.96,.76,.56,1.71,.87,2.57,1.3l.64-.84c-.98-.9-1.93-1.83-2.95-2.69-2.02-1.69-4.09-3.33-6.13-4.99,2.96,.68,6.01,1.99,8.61-.86-1.63-2.84-2.72-3.6-4.97-3.71-3.19-.15-4.26,1.22-3.59,4.63Zm111.57-60.52c-.31-.73-.42-1.77-.98-2.13-1.46-.96-3.11-1.63-5.38-2.75-.71,.16-2.15,.48-3.58,.81l-.21,1.08c2.63,1.22,5.27,2.43,7.9,3.65,.6,.58,1.11,1.42,1.83,1.69,1.69,.63,3.48,.99,5.23,1.46l-.56,.87c1.06,1.15,2,2.47,3.21,3.42,1.64,1.28,3.55,2.21,5.25,3.43,3.22,2.32,5.1,2.29,8.21-.67-2.68-1.56-5.24-3.06-7.7-4.49l-3.98,.42c.19-.91,.34-1.61,.51-2.39-3.12-1.8-5.44-5.28-9.76-4.41Zm-114.42,16.36c2.3,3.25,52.4,37.82,57.32,39.79,1.41-.42,3.09-.83,4.71-1.41,7.39-2.63,14.78-5.28,22.15-7.96,15.87-5.79,31.73-11.58,47.58-17.43,1.38-.51,2.6-1.44,4.23-2.36-1.23-1.03-1.87-1.71-2.64-2.19-4.2-2.57-8.42-5.1-12.65-7.63-1.82-1.09-3.57-2.78-5.51-3.06-3.07-.44-5.46-1.96-7.99-3.38-2.9-1.63-5.73-3.37-8.62-5.02-1.53-.87-3.1-1.5-4.81,.6,4.06,2.94,7.96,5.75,12.1,8.74q-3.24,1.03-8.57-.32c-5.38,1.9-10.46-.51-15.46-1.75-6-1.49-11.7-4.18-17.56-6.28-1.44-.51-2.98-.74-4.45-1.1-.71,1.78-1.25,3.12-1.92,4.78-4.52-.89-9.03-1.6-13.01,1.89-2.96-2.09-5.61-3.96-8.25-5.83-2.94-1.57-6.01-.95-9.08,.17-7.34,2.67-14.3,6.43-22.16,7.65-1.75,.27-3.38,1.27-5.42,2.08ZM15.39,137.26c5.58,4.96,10.65,9.62,15.89,14.09,7.38,6.3,14.92,12.42,22.33,18.69,8.73,7.39,17.38,14.87,26.1,22.26,.99,.84,2.17,1.73,3.38,1.97,4.73,.94,9.4,1.19,14.12-.6,17.16-6.49,34.39-12.78,51.57-19.19,1.26-.47,2.38-1.31,3.86-2.15-2.29-3.44-5.27-5.2-8.03-7.21-2.99-2.17-6.39-4.05-8.73-6.8-2.89-3.4-6.26-5.62-10.19-7.13-2.94,.35-5.79,.69-8.94,1.07-4.65,6.06-17.36,6.08-25.29,1.1-11.19-1.89-20.52-5.56-30.14-8.03-9.7-2.49-19.3-5.34-29.27-8.12-.6-.88-1.27-1.86-1.88-2.74-1.23,.67-2.13,1.16-2.86,1.56-4.01-.57-8.08-4.4-11.93,1.24Zm146.2-10.74c.84,5.6,4.52,7.73,9.05,8.65,4.02,.82,8.12,1.34,12.2,1.82,7.91,.92,15.56-.68,22.96-3.19,4.36-1.48,7.96-4.31,9.47-9.03,1.08-3.36,.22-5.74-2.61-7.65-4.2,4.68-8.37,9.33-12.61,14.05l-1.31-.74c-.4,.57-.67,1.02-1,1.42-.4,.5-.85,.95-1.28,1.43-10.21,2.51-20.1,2.09-29.85-1.75-1.14-2.12-1.99-4.47-5.02-5.01Zm20.58,21.01c3.32,4.66,7.82,8.19,13.57,10.71,2.54-2.69,6.43,1.46,9.77-1.74-3.34-2.91-5.82-6.44-10.62-6.31-.5-3.84-3.73-4.83-6.7-6.67-1.91,1.28-3.84,2.56-6.01,4.01Zm-27.4-44c-4.31,1.08-5.28,1.74-8.65,5.33-4.81,5.13-5.07,12.28-.64,17.78,3.28,4.06,7.58,6.63,12.42,8.34,.72,.26,1.62,.04,2.43,.04-1.36-1.77-3.05-2.81-4.46-4.13-2.89-2.71-6.05-5.27-8.33-8.45-3.43-4.78-2.65-9.94,1.51-14.07,1.76-1.75,3.8-3.22,5.71-4.82Zm-17.9,11.31c.93-.97,1.71-1.8,2.74-2.87-2.88-2.13-5.57-4.03-8.15-6.06-3.27-2.58-3.65-2.6-7.46-.35-.66,.39-1.63,.28-3.45,.55,5.91,4.48,11.14,8.45,17.04,12.92-.33-1.92-.5-2.93-.72-4.19Zm38.42-24.5c2.13,1.59,4.13,3.35,6.38,4.68,2.47,1.46,5.19,2.25,8.13,.38-5.24-3.17-8.95-8.45-15.05-10.08-1.56,.77-2.91,1.44-4.48,2.21,1.98,2.09,3.67,1.63,5.44,.29,.19-.14,.67,.09,1.34,.21l-1.76,2.31ZM30.96,197.45l-.67,.73c.32,.54,.55,1.18,.99,1.59,4.29,3.94,8.6,7.86,12.96,11.73,.67,.6,1.55,1.08,2.41,1.32,1.95,.55,3.35-.29,4.17-2.1,.96-2.11,.45-3.94-1.58-5.26-.74,1.33-1.47,2.65-2.39,4.32-6.15-3.28-10.25-8.87-15.88-12.34Zm99.69-78.58c-.1-1.28,.02-1.86-.19-2.02-4.29-3.3-8.56-6.63-13-9.72-.69-.48-2.18,.2-3.3,.35l-.19,1.02c3.76,4.06,8.59,6.83,13.07,10,.78,.55,2.15,.25,3.6,.38Zm133.01-10.62l.4-1.44c-5.82-3.87-11.62-7.79-17.5-11.57-.64-.41-1.78-.06-2.96-.06,.34,.88,.38,1.39,.64,1.58,5.3,3.72,10.59,7.46,15.99,11.02,.87,.57,2.28,.33,3.44,.47Zm-20.2,25.77l.54-.65c-3.44-2.53-6.79-5.18-10.34-7.55-1.61-1.07-3.24-.31-4.61,1.15,2.01,2.32,2.09,6.61,6.52,5.5,.66,1.18,1.26,2.25,2.05,3.67l2.23-2.78c1.32,.24,2.47,.45,3.61,.65Zm-17.23-24.39c-2.53-5.49-7.61-7.15-11.3-3.85,3.48,5.33,7.59,6.82,11.3,3.85Zm23.6-3.52l-.61,1.05c.86,.69,1.71,1.38,2.69,2.16-.33,.81-.67,1.65-1.01,2.48,1.49,1.34,2.96,2.66,4.64,4.18,1.39-1.31,2.48-2.34,3.81-3.59-3.33-2.51-5.75-5.49-9.52-6.27Zm-34.99-29.24c4.84,2.82,8.72,6.24,13.71,8.74-.43-3.75-1.59-4.78-9.41-9.31-1.41-.82-2.63-1.05-4.31,.57Zm-52.69,69.78c-1.06,1.81-.06,2.85,1.1,3.75,4.08,3.17,8.18,6.32,12.33,9.4,.51,.38,1.31,.36,1.98,.52l.51-.86c-5.26-4.23-10.51-8.47-15.92-12.82Zm59.75-58.21c-.61-.38-1.22-.68-1.73-1.09-2.63-2.09-5.15-4.33-7.89-6.26-.81-.57-2.22-.3-3.96-.48,4.01,5.13,10.12,8.49,13.59,7.83Zm8.7,11.85c-7.12-4.89-13.76-9.44-20.39-13.99l-.59,.8c2.54,1.94,5.22,3.72,7.58,5.87,3.05,2.77,7.83,3.51,9.22,8.12,.84,0,1.49,.07,2.12-.02,.47-.07,.91-.33,2.06-.78Zm-126.72,9.27c1.54,3.51,18.62,16.1,22.44,17-7.93-6.01-15.19-11.51-22.44-17Zm308.19-20.4c.03,.41,.07,.82,.1,1.23,3.84,.5,7.67,1,11.51,1.51l.54-.92c-.72-1.11-1.44-2.22-2.36-3.65-3.41,.64-6.59,1.24-9.78,1.83Zm-180.24-2.33c1.61,3.46,4.73,4.93,7.62,6.59,.64,.37,1.82-.19,2.75-.33l.21-1.02c-3.64-1.55-6.1-5.2-10.58-5.24Zm37.69,36.67c-3.74-2.71-6.79-6.49-12.33-7.93,3.57,4.99,8.72,8.34,12.33,7.93Zm-145.84-3.06l.76-1.03c-4.68-3.69-9.36-7.39-14.04-11.08l-.7,.58c.47,.83,.73,1.94,1.43,2.45,4.17,3.05,8.11,6.44,12.56,9.08Zm44.62-5.38c-3.26,1.63-4.03,3.31-3.36,5.97,.69,2.73,2.97,4.31,6.15,4.06-1.58-2.01-3.08-3.92-4.53-5.75,.59-1.45,1.01-2.5,1.74-4.29ZM426.83,40.4c2.1,.45,3.71,.8,5.11,1.1,.51,1.41,.87,2.39,1.42,3.93,1.41-2.87,.68-4.86-.27-6.84-2.43-.82-4.45-.71-6.25,1.81Zm-152.2,75.71l-.57,1.28c2.25,1.48,4.51,2.96,6.83,4.49,.97-.33,1.89-.65,3.01-1.03-2.91-2.55-5.96-3.93-9.27-4.74Zm-4.21,4c1.49,3,4.21,4.42,7.1,5.61-1.49-2.96-4.31-4.28-7.1-5.61Zm-5.91-9.99c2.07,1.69,3.09,4,5.86,2.54-1.64-2.91-1.98-3.08-5.86-2.54Zm-56.78-32.16l.67-.93c-2.15-1.63-4.31-3.26-6.46-4.89l-.78,1.01c1.65,2.27,4.2,3.43,6.57,4.81Zm39,27.54c-1.3-3.45-2.62-4.33-6.07-4.2,2.4,1.66,4.24,2.93,6.07,4.2Zm92.49-49.44c-.57,.7-1.11,1.37-1.98,2.43h5.89l-3.91-2.43Zm-150.53,59.25c-.48,.19-.96,.39-1.43,.58,.67,1.47,1.33,2.93,2,4.4l1.18-.49c-.58-1.5-1.16-2.99-1.74-4.49Zm16.33,.6c.29-.43,.58-.86,.87-1.29-.55-1.21-1.22-2.19-3.84-.85,1.28,.92,2.12,1.53,2.96,2.14Z"/><path class="cls-2" d="M522.02,188.59c-2.84-.72-4.76-1.21-6.78-1.72-.7-.91-1.41-1.84-2.29-3-.97,.05-2.08-.13-3.02,.19-4.67,1.63-9.45,1.76-14.15,.62-6.43-1.56-12.85-1.59-19.4-1.13-11.4,.8-22.83,1.13-34.22,1.98-4.81,.36-9.5-.1-14.26-.36-5.72-.31-11.16-2.14-16.75-2.55-5.15-.38-9.83-2.07-14.65-3.44-3.1-.88-5.27-2.62-5.88-6.24-.6-3.55-2.22-4.45-5.88-4.72-2.78-.21-5.54-.57-8.3-.93-.47-.06-.9-.42-1.81-.88,1.04-.7,1.69-1.28,2.45-1.6,1.86-.77,3.1-2,3.53-4,.5-2.39,2.11-3.27,4.4-3.95,4.74-1.41,8.87-1.04,11.88,2.64,2.77-.06,3.88-1.58,4.72-3.27,2.56-5.15,4.57-10.43,4.53-16.36-.03-4.64,.34-9.29,.6-13.93,.05-.85,.46-1.67,.98-3.43,5.01,5.03,9.52,9.55,14.24,14.29,1.84-.54,3.71-1.09,5.63-1.65,.49,.22,1.01,.38,1.44,.67,5.37,3.5,9.86,1.64,11.26-4.69,.42-1.89,.76-3.8,1.65-5.74,1.4,6.63,1.57,13.54,6.1,19.57,2.85-2.98,5.32-6.04,9.95-6.46,1.12,3.65,2.24,7.27,3.39,11.01l4,.56c-.23,2.75-.46,5.53-.7,8.33,3.74-.11,4.98-.86,5.01-4.01,.06-5.28-.4-10.57-.65-15.86-.03-.62-.13-1.23-.2-1.85l.86-.42c1.46,2.26,3.17,4.41,4.32,6.82,1.92,4.05,2.79,4.59,7.02,3.46,1.22-.33,2.52-.33,3.77-.48,1.66,3.11,3.15,5.88,4.72,8.81-.48,1.57-1,3.26-1.6,5.21,4.31,.57,3.88-4.09,7.2-4.96,3.53,4.03,7.9,7.77,13.82,8.19,5.5,.39,11.05,.08,16.71-.54,.86,.59,1.9,1.03,2.55,1.8,3.72,4.4,8.53,4.27,13.53,3.43,2.73-.45,5.46-1.26,8.42,.37,.19,4.6-6.14,4.16-6.61,8.2,.06,1.17,.13,2.34,.23,4.09-2.77,.72-5.49,1.83-8.28,2.03-2.8,.2-5.67-.5-8.76-.84-1.46,2.09-3.07,4.4-4.69,6.72Z"/><path class="cls-2" d="M577.69,244.88c4.63-1.58,7.25,2.9,11.2,3.35,3.92,.45,7.72,1.92,11.57,2.95,3.75,1,7.49,2.02,11.24,3.03,.13-.36,.27-.73,.4-1.09-1.73-.79-3.54-1.44-5.16-2.41-1.65-.99-3.11-2.31-4.65-3.49-1.67-1.28-3.21-2.78-5.03-3.79-2.77-1.54-4.66-3.73-6.36-6.5,2.05-2.82,4.74-3.36,7.76-3.15,1.17,.08,2.66,.59,3.46,.07,3.23-2.07,6.72-1.98,10.31-2.19,3-.18,5.94-1.26,8.91-1.95,2.3-.54,4.61-1.09,6.78-1.61,4.82,3.94,9.51,3.68,14.83,1.66,5.16-1.96,10.72-2.88,16.15-4.09,1.82-.41,3.48-.89,3.96-2.81,.75-3.04,2.89-4.69,5.46-5.96,5.29-2.6,10.61-5.12,16.89-8.15,.95-1.94,3.36-3.54,6.7-4.45,1.96-.54,3.57-2.65,5.14-4.24,2.1-2.14,4.2-4.05,7.44-4.13,.74-.02,1.63-.39,2.17-.9,2.62-2.51,5.82-2.75,9.21-3.04,2.55-.22,5.19-1.15,7.48-2.35,2.56-1.34,5.37-2.91,7.02-5.15,3.25-4.41,6.63-9.07,8.3-14.18,1.16-3.57-.45-8.04-.79-12.11-.18-2.07-.46-4.14-.41-6.2,.11-4.37,.68-8.75,.53-13.1-.07-1.96-1.43-3.87-1.83-6.23,.98,1.02,2.06,1.95,2.92,3.06,3.09,3.99,6.31,7.89,9.06,12.11,1.38,2.12,2.38,4.79,2.64,7.31,.72,6.83,1.02,13.71,1.34,20.58,.13,2.83-.91,5.42-2.82,7.53-1.68,1.84-3.5,3.57-5.31,5.28-4.16,3.91-8.31,7.83-12.57,11.62-1.45,1.29-3.26,2.16-4.88,3.27-1.29,.89-2.75,1.65-3.77,2.8-4.83,5.42-10.97,9.08-16.89,13.11-6.01,4.09-11.6,8.8-17.43,13.18-1.46,1.1-3.08,1.97-4.65,2.91-2.38,1.43-4.97,2.58-7.12,4.29-3.68,2.94-8.05,3.94-12.39,5.15-1.65,.46-3.35,.88-4.84,1.68-2.67,1.44-5.07,3.38-8.3,3.55-.7,.04-1.54,.59-2.03,1.15-2.18,2.53-5.11,2.65-8.14,3.36-7.39,1.75-14.8,.97-22.19,1.39-1.84,.1-3.91,.97-5.36,2.13-2.33,1.86-4.73,2.61-7.67,2.7-4.91,.14-9.4-.32-13.49-3.59-1.44-1.15-4-1.06-6.08-1.23-5.4-.46-8.89-3.88-9.11-9.22-.03-.62,.26-1.25,.41-1.9Z"/><path class="cls-2" d="M548,83.92c3.87,2.04,3.8,5.34,3.62,8.79-.27,.41-.47,.96-.87,1.27-5.04,3.85-8.47,9.03-12.28,13.99-2.91,3.77-7.18,6.5-9.38,8.41,5.57-9.56,12.16-20.87,18.9-32.45Z"/><path class="cls-2" d="M357.89,172.59c6.6,2.16,12.96,4.24,19.48,6.37-.89,3.57-3.14,5.1-5.72,6.22-1.84,.8-3.49,.07-4.57-1.44-2.02-2.81-4.68-4.57-7.87-5.83-2.69-1.06-2.83-1.94-1.32-5.32Z"/><path class="cls-2" d="M605.11,222.43c1.57,1.64,2.78,2.92,4.19,4.39-2.94,2.52-6.16,3.3-9.25,4.21-1.87,.55-3.89,.6-5.86,.75-3.24,.24-4.9-1.2-5.61-5.23,5.04-2.48,10.95-1.81,16.54-4.12Z"/><path class="cls-2" d="M564.14,211.57c1.14-.94,1.9-2.09,2.85-2.27,6.64-1.25,13.16-4.07,20.4-1.89-1.22,3.21-3.82,4.17-6.48,4.89-7.1,1.92-13.42,1.8-16.77-.73Z"/><path class="cls-2" d="M607.53,211.14c-6.13,6.09-22.15,11.46-32.62,9.03,5.49-2.46,11.01-3.33,16.51-4.55,5.4-1.2,10.55-3.55,15.8-5.4l.31,.91Z"/><path class="cls-2" d="M529.11,40.45c-1.65-2.53-1.52-4.44-.63-6.53,2.32-5.47,4.54-10.98,6.75-16.5,.62-1.56,1.29-2.88,3.59-2.62-.25,9.67-6.81,16.66-9.71,25.65Z"/><path class="cls-2" d="M5.11,178.09c-.79-1.38-1.58-2.76-2.79-4.87-.25-.21-1.16-.98-2.32-1.95v-10.34c1.6,5.78,6,10.51,6.64,16.54l-1.53,.62Z"/><path class="cls-2" d="M24.53,161.71c-6.45-5.42-12.9-10.84-19.35-16.26l.44-.94c.83,.3,1.84,.39,2.46,.93,5.28,4.6,10.49,9.27,15.7,13.94,.56,.51,.96,1.2,1.44,1.8l-.69,.53Z"/><path class="cls-2" d="M28.21,164.44c3.12,.49,11.24,7.39,14.07,11.76-5.23-3.25-9.84-7.25-14.07-11.76Z"/><path class="cls-2" d="M47.36,179.74l16.01,12.55c-2.91-.11-12.94-7.8-16.51-11.9l.5-.65Z"/><path class="cls-2" d="M1.69,148.88c1.94,1.73,3.6,3.2,5.19,4.62-1.01,2-2.1,1.46-3.07,.72-1.53-1.17-3.16-2.35-2.12-5.34Z"/><path class="cls-1" d="M237.07,80.91c2.04-.8,3.68-1.8,5.42-2.08,7.86-1.22,14.82-4.98,22.16-7.65,3.07-1.12,6.14-1.74,9.08-.17,2.64,1.87,5.29,3.74,8.25,5.83,3.98-3.5,8.49-2.79,13.01-1.89,.67-1.67,1.2-3,1.92-4.78,1.47,.35,3.01,.58,4.45,1.1,5.86,2.1,11.56,4.79,17.56,6.28,5,1.24,10.07,3.65,15.46,1.75q5.32,1.34,8.57,.32c-4.14-2.99-8.04-5.81-12.1-8.74,1.72-2.1,3.29-1.47,4.81-.6,2.89,1.65,5.72,3.39,8.62,5.02,2.52,1.42,4.92,2.94,7.99,3.38,1.94,.28,3.69,1.97,5.51,3.06,4.22,2.53,8.45,5.05,12.65,7.63,.77,.47,1.41,1.16,2.64,2.19-1.63,.92-2.85,1.85-4.23,2.36-15.84,5.85-31.71,11.65-47.58,17.43-7.37,2.69-14.76,5.34-22.15,7.96-1.62,.58-3.29,.99-4.71,1.41-4.93-1.97-55.03-36.54-57.32-39.79Z"/><path class="cls-1" d="M15.39,137.26c3.86-5.63,7.92-1.8,11.93-1.24,.73-.4,1.62-.89,2.86-1.56,.61,.89,1.28,1.87,1.88,2.74,9.97,2.78,19.57,5.63,29.27,8.12,9.62,2.47,18.95,6.15,30.14,8.03,7.93,4.98,20.64,4.96,25.29-1.1,3.15-.38,6-.72,8.94-1.07,3.93,1.51,7.3,3.74,10.19,7.13,2.34,2.75,5.74,4.63,8.73,6.8,2.77,2.01,5.74,3.77,8.03,7.21-1.48,.83-2.6,1.68-3.86,2.15-17.18,6.41-34.41,12.71-51.57,19.19-4.72,1.79-9.4,1.54-14.12,.6-1.21-.24-2.39-1.14-3.38-1.97-8.72-7.39-17.37-14.87-26.1-22.26-7.41-6.27-14.95-12.39-22.33-18.69-5.24-4.47-10.31-9.13-15.89-14.09Z"/><path class="cls-1" d="M161.59,126.51c3.03,.54,3.88,2.89,5.02,5.01,9.74,3.84,19.64,4.25,29.85,1.75,.43-.47,.88-.93,1.28-1.43,.33-.4,.6-.85,1-1.42l1.31,.74c4.23-4.72,8.41-9.37,12.61-14.05,2.84,1.91,3.69,4.29,2.61,7.65-1.51,4.73-5.12,7.55-9.47,9.03-7.4,2.51-15.05,4.11-22.96,3.19-4.08-.48-8.18-.99-12.2-1.82-4.53-.92-8.21-3.06-9.05-8.65Z"/><path class="cls-1" d="M182.17,147.53c2.17-1.45,4.1-2.73,6.01-4.01,2.98,1.84,6.21,2.83,6.7,6.67,4.81-.13,7.29,3.4,10.62,6.31-3.35,3.19-7.24-.95-9.77,1.74-5.75-2.53-10.24-6.05-13.57-10.71Z"/><path class="cls-1" d="M154.77,103.52c-1.91,1.6-3.95,3.07-5.71,4.82-4.16,4.14-4.94,9.29-1.51,14.07,2.28,3.18,5.44,5.74,8.33,8.45,1.42,1.33,3.11,2.36,4.46,4.13-.81,0-1.71,.22-2.43-.04-4.84-1.71-9.15-4.28-12.42-8.34-4.43-5.49-4.17-12.65,.64-17.78,3.36-3.59,4.34-4.24,8.65-5.33Z"/><path class="cls-1" d="M136.88,114.83c.21,1.25,.39,2.27,.72,4.19-5.89-4.47-11.13-8.44-17.04-12.92,1.82-.27,2.78-.16,3.45-.55,3.81-2.25,4.19-2.22,7.46,.35,2.58,2.03,5.27,3.92,8.15,6.06-1.03,1.08-1.81,1.9-2.74,2.87Z"/><path class="cls-1" d="M351.5,64.55c4.33-.87,6.64,2.61,9.76,4.41-.17,.78-.32,1.48-.51,2.39l3.98-.42c2.46,1.43,5.02,2.93,7.7,4.49-3.12,2.95-4.99,2.99-8.21,.67-1.69-1.22-3.61-2.14-5.25-3.43-1.22-.95-2.15-2.27-3.21-3.42l.56-.87c-1.75-.47-3.54-.83-5.23-1.46-.72-.27-1.23-1.11-1.83-1.69l2.24-.66Z"/><path class="cls-1" d="M175.3,90.33l1.76-2.31c-.67-.12-1.15-.36-1.34-.21-1.77,1.34-3.47,1.8-5.44-.29,1.57-.77,2.92-1.44,4.48-2.21,6.1,1.63,9.81,6.91,15.05,10.08-2.94,1.87-5.66,1.08-8.13-.38-2.25-1.33-4.25-3.09-6.38-4.68Z"/><path class="cls-1" d="M30.96,197.45c5.63,3.47,9.73,9.05,15.88,12.34,.93-1.67,1.66-2.99,2.39-4.32,2.03,1.33,2.53,3.16,1.58,5.26-.82,1.8-2.22,2.64-4.17,2.1-.86-.24-1.74-.72-2.41-1.32-4.35-3.87-8.66-7.79-12.96-11.73-.44-.41-.66-1.05-.99-1.59l.67-.73Z"/><path class="cls-1" d="M130.65,118.88c-1.45-.12-2.82,.17-3.6-.38-4.48-3.16-9.31-5.93-13.07-10l.19-1.02c1.12-.14,2.61-.82,3.3-.35,4.44,3.09,8.71,6.42,13,9.72,.21,.16,.08,.74,.19,2.02Z"/><path class="cls-1" d="M263.66,108.26c-1.16-.13-2.57,.11-3.44-.47-5.4-3.57-10.69-7.31-15.99-11.02-.26-.18-.29-.69-.64-1.58,1.17,0,2.31-.36,2.96,.06,5.88,3.78,11.68,7.69,17.5,11.57l-.4,1.44Z"/><path class="cls-1" d="M243.45,134.03c-1.15-.21-2.3-.42-3.61-.65l-2.23,2.78c-.79-1.41-1.39-2.49-2.05-3.67-4.43,1.11-4.51-3.18-6.52-5.5,1.38-1.46,3-2.23,4.61-1.15,3.55,2.36,6.91,5.01,10.34,7.55l-.54,.65Z"/><path class="cls-1" d="M226.22,109.64c-3.71,2.97-7.82,1.47-11.3-3.85,3.69-3.3,8.77-1.64,11.3,3.85Z"/><path class="cls-1" d="M239.87,125.01c2.05,1.66,4.11,3.3,6.13,4.99,1.02,.85,1.97,1.79,2.95,2.69l-.64,.84c-.86-.43-1.8-.74-2.57-1.3-5.89-4.29-11.76-8.58-17.58-12.96-1.28-.96-2.96-1.9-2.38-3.95,4.77,3.29,9.46,6.52,14.14,9.75l-.06-.06Z"/><path class="cls-1" d="M192.03,91.61c1.37-2.84,1.61-2.99,6.68-3.8,1.41,1.02,3.12,2.27,4.84,3.52l-.16,1.09c-2.31,.66-4.63,1.32-6.94,1.97l-4.41-2.78Z"/><path class="cls-1" d="M192.03,91.61l4.41,2.78c2.09,1.77,4.18,3.54,6.47,5.48-2.26,.2-2.24,.18-7.9-3.78-2.62-1.83-5.46-3.36-7.92-5.38-2.22-1.83-5.65-2.57-6.5-6.92l11.43,7.82Z"/><path class="cls-1" d="M156.8,150.59c-2.96-1.96-6.01-3.8-8.86-5.91-5.42-4.02-10.73-8.2-16.07-12.33-.5-.38-.86-.94-1-1.9,.74,.32,1.59,.52,2.22,.99,6.55,4.94,13.11,9.88,19.58,14.93,1.54,1.2,2.74,2.83,4.1,4.26l.04-.05Z"/><path class="cls-1" d="M249.82,106.12c3.78,.77,6.2,3.75,9.52,6.27-1.33,1.25-2.42,2.28-3.81,3.59-1.69-1.52-3.15-2.84-4.64-4.18,.34-.83,.68-1.67,1.01-2.48-.97-.78-1.83-1.47-2.69-2.16l.61-1.05Z"/><path class="cls-1" d="M214.83,76.88c1.68-1.62,2.9-1.39,4.31-.57,7.82,4.53,8.98,5.56,9.41,9.31-4.99-2.5-8.88-5.92-13.71-8.74Z"/><path class="cls-1" d="M239.93,125.06c-.67-3.41,.4-4.78,3.59-4.63,2.25,.11,3.34,.87,4.97,3.71-2.6,2.84-5.65,1.54-8.61,.86l.06,.06Z"/><path class="cls-1" d="M162.14,146.67c5.41,4.35,10.66,8.59,15.92,12.82l-.51,.86c-.67-.17-1.47-.15-1.98-.52-4.14-3.09-8.24-6.24-12.33-9.4-1.16-.9-2.16-1.94-1.1-3.75Z"/><path class="cls-1" d="M221.88,88.46c-3.46,.66-9.58-2.7-13.59-7.83,1.74,.18,3.15-.09,3.96,.48,2.74,1.93,5.26,4.17,7.89,6.26,.52,.41,1.12,.71,1.73,1.09Z"/><path class="cls-1" d="M230.58,100.31c-1.14,.44-1.58,.71-2.06,.78-.63,.09-1.28,.02-2.12,.02-1.39-4.61-6.17-5.35-9.22-8.12-2.36-2.14-5.04-3.92-7.58-5.87l.59-.8c6.63,4.55,13.27,9.1,20.39,13.99Z"/><path class="cls-1" d="M103.86,109.58c7.25,5.5,14.51,10.99,22.44,17-3.82-.9-20.9-13.5-22.44-17Z"/><path class="cls-1" d="M412.05,89.18c3.19-.6,6.37-1.19,9.78-1.83,.92,1.43,1.64,2.54,2.36,3.65l-.54,.92c-3.84-.5-7.67-1-11.51-1.51-.03-.41-.07-.82-.1-1.23Z"/><path class="cls-1" d="M231.81,86.85c4.48,.04,6.94,3.69,10.58,5.24l-.21,1.02c-.93,.13-2.1,.69-2.75,.33-2.9-1.66-6.01-3.13-7.62-6.59Z"/><path class="cls-1" d="M351.5,64.55l-2.24,.66c-2.63-1.22-5.27-2.43-7.9-3.65l.21-1.08c1.44-.32,2.87-.65,3.58-.81,2.27,1.13,3.92,1.79,5.38,2.75,.55,.36,.66,1.4,.98,2.13Z"/><path class="cls-1" d="M269.5,123.52c-3.61,.41-8.76-2.94-12.33-7.93,5.54,1.44,8.59,5.22,12.33,7.93Z"/><path class="cls-1" d="M123.67,120.46c-4.44-2.64-8.39-6.03-12.56-9.08-.7-.51-.96-1.62-1.43-2.45l.7-.58c4.68,3.69,9.36,7.39,14.04,11.08l-.76,1.03Z"/><path class="cls-1" d="M156.75,150.63c3.92,2.71,7.89,5.34,11.74,8.15,2.08,1.52,3.96,3.32,5.6,5.39-6.09-4.12-12.27-8.12-17.29-13.58l-.04,.05Z"/><path class="cls-1" d="M168.29,115.08c-.72,1.79-1.15,2.84-1.74,4.29,1.44,1.83,2.95,3.74,4.53,5.75-3.19,.24-5.46-1.33-6.15-4.06-.67-2.66,.1-4.34,3.36-5.97Z"/><path class="cls-1" d="M426.83,40.4c1.81-2.52,3.83-2.63,6.25-1.81,.95,1.98,1.69,3.97,.27,6.84-.56-1.54-.91-2.52-1.42-3.93-1.39-.3-3-.65-5.11-1.1Z"/><path class="cls-1" d="M274.63,116.11c3.31,.81,6.37,2.19,9.27,4.74-1.12,.38-2.05,.7-3.01,1.03-2.32-1.52-4.57-3-6.83-4.49l.57-1.28Z"/><path class="cls-1" d="M270.42,120.11c2.8,1.34,5.62,2.65,7.1,5.61-2.89-1.19-5.61-2.61-7.1-5.61Z"/><path class="cls-1" d="M264.51,110.12c3.88-.53,4.21-.37,5.86,2.54-2.77,1.45-3.78-.86-5.86-2.54Z"/><path class="cls-1" d="M207.74,77.96c-2.37-1.38-4.92-2.54-6.57-4.81l.78-1.01c2.15,1.63,4.31,3.26,6.46,4.89l-.67,.93Z"/><path class="cls-1" d="M246.74,105.49c-1.84-1.27-3.67-2.54-6.07-4.2,3.46-.13,4.78,.75,6.07,4.2Z"/><path class="cls-1" d="M339.23,56.05l3.91,2.43h-5.89c.87-1.06,1.41-1.73,1.98-2.43Z"/><path class="cls-1" d="M188.7,115.3c.58,1.5,1.16,2.99,1.74,4.49l-1.18,.49c-.67-1.47-1.33-2.93-2-4.4,.48-.19,.96-.39,1.43-.58Z"/><path class="cls-1" d="M205.04,115.91c-.84-.61-1.68-1.22-2.96-2.14,2.61-1.34,3.29-.36,3.84,.85-.29,.43-.58,.86-.87,1.29Z"/></svg>